<svg xmlns="http://www.w3.org/2000/svg" width="128" height="128" viewBox="0 0 128 128"><g stroke="#baa98a" stroke-width=".45" opacity=".45"><path d="M0 8h128M0 24h128M0 40h128M0 56h128M0 72h128M0 88h128M0 104h128M0 120h128"/><path d="M8 0v128M24 0v128M40 0v128M56 0v128M72 0v128M88 0v128M104 0v128M120 0v128" opacity=".25"/></g><g fill="#baa98a" opacity=".2"><circle cx="9" cy="15" r=".7"/><circle cx="52" cy="44" r="1"/><circle cx="111" cy="76" r=".8"/><circle cx="29" cy="99" r=".8"/><circle cx="79" cy="116" r=".6"/></g></svg>
